:FULLY-SPECIFIED
:FORCE-ALL-JOINTS-BE-3DOF
:DEGREES
238
root 6.20598 15.7665 -25.655 8.39505 30.9576 -2.76136
lfemur -29.3744 20.4892 -10.65
ltibia 38.4818 0 0
lfoot -22.1731 -2.13312 0
ltoes 36.7891 0 0
rfemur -14.4784 -1.77804 0.774604
rtibia 41.5336 0 0
rfoot -34.2461 -19.9293 0
rtoes 55.9231 0 0
lowerback -0.535662 -2.63955 1.26238
upperback -1.21319 -3.44671 0.978042
thorax -0.901407 -1.7209 0.291201
lowerneck -10.1113 -4.15793 1.29624
upperneck 2.60699 -5.79245 1.01754
head 2.61392 -2.81761 -0.195493
lclavicle -1.93524e-14 -2.71493e-16 0
lhumerus -56.0223 -36.037 120.868
lradius 60.7316 0 0
lwrist 18.8712 0 0
lhand 12.5466 16.1532 0
lfingers 7.12502 0 0
lthumb 37.2503 39.9293 0
rclavicle -1.93524e-14 -2.71493e-16 0
rhumerus -31.8172 -18.7679 -52.9538
rradius 59.4763 0 0
rwrist 7.1337 0 0
rhand -20.9783 -33.1707 0
rfingers 7.12502 0 0
rthumb 5.39413 -703.87 0
239
root 6.24872 15.7894 -25.6611 8.43193 31.9754 -3.02304
lfemur -30.532 21.1832 -11.008
ltibia 39.5106 0 0
lfoot -21.7356 -1.82937 0
ltoes 36.4714 0 0
rfemur -13.9369 -1.20447 1.06389
rtibia 41.2333 0 0
rfoot -34.4867 -21.1268 0
rtoes 55.7868 0 0
lowerback -0.459376 -2.67833 1.31621
upperback -1.22951 -3.49857 1.2483
thorax -0.952197 -1.74637 0.544632
lowerneck -10.0709 -4.29882 1.11824
upperneck 2.56742 -5.95099 0.975384
head 2.59345 -2.90149 -0.185953
lclavicle -1.96372e-14 1.65817e-15 0
lhumerus -55.9162 -35.6925 121.003
lradius 60.9413 0 0
lwrist 18.6697 0 0
lhand 11.6671 15.7315 0
lfingers 7.12502 0 0
lthumb 36.4467 39.9307 0
rclavicle -1.96372e-14 1.65817e-15 0
rhumerus -32.7386 -18.5154 -54.1694
rradius 59.6635 0 0
rwrist 8.0373 0 0
rhand -20.4368 -32.3281 0
rfingers 7.12502 0 0
rthumb 5.91692 -711.809 0
240
root 6.29146 15.8122 -25.6671 8.46881 32.9933 -3.28472
lfemur -31.6897 21.8773 -11.3659
ltibia 40.5393 0 0
lfoot -21.2981 -1.52562 0
ltoes 36.1538 0 0
rfemur -13.3953 -0.630895 1.35318
rtibia 40.933 0 0
rfoot -34.7273 -22.3244 0
rtoes 55.6505 0 0
lowerback -0.383091 -2.71711 1.37004
upperback -1.24583 -3.55043 1.51857
thorax -1.00299 -1.77184 0.798063
lowerneck -10.0305 -4.43971 0.940232
upperneck 2.52784 -6.10953 0.933226
head 2.57297 -2.98538 -0.176413
lclavicle -1.99221e-14 3.58784e-15 0
lhumerus -55.81 -35.3479 121.139
lradius 61.151 0 0
lwrist 18.4681 0 0
lhand 10.7875 15.3098 0
lfingers 7.12502 0 0
lthumb 35.6431 39.9322 0
rclavicle -1.99221e-14 3.58784e-15 0
rhumerus -33.66 -18.2629 -55.3849
rradius 59.8508 0 0
rwrist 8.9409 0 0
rhand -19.8953 -31.4855 0
rfingers 7.12502 0 0
rthumb 6.4397 -719.749 0
241
root 6.3342 15.8351 -25.6732 8.50569 34.0111 -3.54639
lfemur -32.8474 22.5713 -11.7239
ltibia 41.568 0 0
lfoot -20.8607 -1.22187 0
ltoes 35.8362 0 0
rfemur -12.8538 -0.0573244 1.64247
rtibia 40.6327 0 0
rfoot -34.968 -23.522 0
rtoes 55.5142 0 0
lowerback -0.306805 -2.75589 1.42387
upperback -1.26215 -3.60228 1.78883
thorax -1.05378 -1.7973 1.05149
lowerneck -9.99016 -4.5806 0.762227
upperneck 2.48827 -6.26808 0.891068
head 2.5525 -3.06926 -0.166872
lclavicle -2.02069e-14 5.5175e-15 0
lhumerus -55.7038 -35.0034 121.274
lradius 61.3606 0 0
lwrist 18.2665 0 0
lhand 9.90799 14.8882 0
lfingers 7.12502 0 0
lthumb 34.8394 39.9336 0
rclavicle -2.02069e-14 5.5175e-15 0
rhumerus -34.5814 -18.0104 -56.6005
rradius 60.038 0 0
rwrist 9.8445 0 0
rhand -19.3538 -30.6428 0
rfingers 7.12502 0 0
rthumb 6.96249 -727.688 0
242
root 6.37693 15.8579 -25.6793 8.54257 35.0289 -3.80807
lfemur -34.005 23.2653 -12.0818
ltibia 42.5968 0 0
lfoot -20.4232 -0.918124 0
ltoes 35.5185 0 0
rfemur -12.3122 0.516246 1.93176
rtibia 40.3323 0 0
rfoot -35.2086 -24.7195 0
rtoes 55.3779 0 0
lowerback -0.23052 -2.79466 1.4777
upperback -1.27847 -3.65414 2.05909
thorax -1.10457 -1.82277 1.30493
lowerneck -9.94977 -4.72149 0.584223
upperneck 2.4487 -6.42662 0.84891
head 2.53203 -3.15315 -0.157332
lclavicle -2.04918e-14 7.44717e-15 0
lhumerus -55.5977 -34.6588 121.41
lradius 61.5703 0 0
lwrist 18.0649 0 0
lhand 9.02845 14.4665 0
lfingers 7.12502 0 0
lthumb 34.0358 39.9351 0
rclavicle -2.04918e-14 7.44717e-15 0
rhumerus -35.5029 -17.7579 -57.8161
rradius 60.2253 0 0
rwrist 10.7481 0 0
rhand -18.8123 -29.8002 0
rfingers 7.12502 0 0
rthumb 7.48527 -735.628 0
243
root 6.41967 15.8808 -25.6854 8.57944 36.0467 -4.06975
lfemur -35.1627 23.9594 -12.4398
ltibia 43.6255 0 0
lfoot -19.9857 -0.614374 0
ltoes 35.2009 0 0
rfemur -11.7707 1.08982 2.22105
rtibia 40.032 0 0
rfoot -35.4492 -25.9171 0
rtoes 55.2415 0 0
lowerback -0.154234 -2.83344 1.53153
upperback -1.29479 -3.706 2.32935
thorax -1.15536 -1.84824 1.55836
lowerneck -9.90938 -4.86238 0.406218
upperneck 2.40913 -6.58516 0.806752
head 2.51155 -3.23703 -0.147792
lclavicle -2.07766e-14 9.37684e-15 0
lhumerus -55.4915 -34.3142 121.546
lradius 61.78 0 0
lwrist 17.8633 0 0
lhand 8.14891 14.0449 0
lfingers 7.12502 0 0
lthumb 33.2322 39.9365 0
rclavicle -2.07766e-14 9.37684e-15 0
rhumerus -36.4243 -17.5055 -59.0317
rradius 60.4126 0 0
rwrist 11.6517 0 0
rhand -18.2707 -28.9576 0
rfingers 7.12502 0 0
rthumb 8.00806 -743.567 0
244
root 6.46241 15.9036 -25.6915 8.61632 37.0645 -4.33143
lfemur -36.3204 24.6534 -12.7977
ltibia 44.6542 0 0
lfoot -19.5482 -0.310625 0
ltoes 34.8833 0 0
rfemur -11.2292 1.66339 2.51034
rtibia 39.7317 0 0
rfoot -35.6898 -27.1147 0
rtoes 55.1052 0 0
lowerback -0.0779487 -2.87222 1.58536
upperback -1.31112 -3.75786 2.59961
thorax -1.20615 -1.87371 1.81179
lowerneck -9.86899 -5.00328 0.228214
upperneck 2.36956 -6.7437 0.764594
head 2.49108 -3.32092 -0.138252
lclavicle -2.10615e-14 1.13065e-14 0
lhumerus -55.3853 -33.9697 121.681
lradius 61.9897 0 0
lwrist 17.6617 0 0
lhand 7.26937 13.6232 0
lfingers 7.12502 0 0
lthumb 32.4286 39.938 0
rclavicle -2.10615e-14 1.13065e-14 0
rhumerus -37.3457 -17.253 -60.2473
rradius 60.5998 0 0
rwrist 12.5553 0 0
rhand -17.7292 -28.115 0
rfingers 7.12502 0 0
rthumb 8.53084 -751.507 0
245
root 6.50515 15.9265 -25.6975 8.6532 38.0824 -4.5931
lfemur -37.4781 25.3474 -13.1557
ltibia 45.6829 0 0
lfoot -19.1108 -0.00687568 0
ltoes 34.5657 0 0
rfemur -10.6876 2.23696 2.79963
rtibia 39.4314 0 0
rfoot -35.9305 -28.3123 0
rtoes 54.9689 0 0
lowerback -0.00166312 -2.911 1.63919
upperback -1.32744 -3.80971 2.86988
thorax -1.25694 -1.89918 2.06522
lowerneck -9.8286 -5.14417 0.0502097
upperneck 2.32998 -6.90225 0.722436
head 2.47061 -3.4048 -0.128711
lclavicle -2.13463e-14 1.32362e-14 0
lhumerus -55.2791 -33.6251 121.817
lradius 62.1994 0 0
lwrist 17.4602 0 0
lhand 6.38983 13.2015 0
lfingers 7.12502 0 0
lthumb 31.6249 39.9394 0
rclavicle -2.13463e-14 1.32362e-14 0
rhumerus -38.2671 -17.0005 -61.4628
rradius 60.7871 0 0
rwrist 13.4589 0 0
rhand -17.1877 -27.2723 0
rfingers 7.12502 0 0
rthumb 9.05363 -759.446 0
246
root 6.54789 15.9493 -25.7036 8.69008 39.1002 -4.85478
lfemur -38.6357 26.0415 -13.5136
ltibia 46.7117 0 0
lfoot -18.6733 0.296874 0
ltoes 34.248 0 0
rfemur -10.1461 2.81053 3.08892
rtibia 39.131 0 0
rfoot -36.1711 -29.5098 0
rtoes 54.8326 0 0
lowerback 0.0746224 -2.94978 1.69302
upperback -1.34376 -3.86157 3.14014
thorax -1.30773 -1.92465 2.31865
lowerneck -9.78821 -5.28506 -0.127795
upperneck 2.29041 -7.06079 0.680278
head 2.45013 -3.48869 -0.119171
lclavicle -2.16312e-14 1.51658e-14 0
lhumerus -55.173 -33.2806 121.952
lradius 62.4091 0 0
lwrist 17.2586 0 0
lhand 5.51029 12.7799 0
lfingers 7.12502 0 0
lthumb 30.8213 39.9409 0
rclavicle -2.16312e-14 1.51658e-14 0
rhumerus -39.1886 -16.748 -62.6784
rradius 60.9743 0 0
rwrist 14.3625 0 0
rhand -16.6462 -26.4297 0
rfingers 7.12502 0 0
rthumb 9.57641 -767.386 0
247
root 6.59063 15.9722 -25.7097 8.72696 40.118 -5.11646
lfemur -39.7934 26.7355 -13.8716
ltibia 47.7404 0 0
lfoot -18.2358 0.600623 0
ltoes 33.9304 0 0
rfemur -9.60454 3.3841 3.37821
rtibia 38.8307 0 0
rfoot -36.4117 -30.7074 0
rtoes 54.6963 0 0
lowerback 0.150908 -2.98856 1.74685
upperback -1.36008 -3.91343 3.4104
thorax -1.35852 -1.95012 2.57208
lowerneck -9.74782 -5.42595 -0.305799
upperneck 2.25084 -7.21933 0.63812
head 2.42966 -3.57257 -0.109631
lclavicle -2.1916e-14 1.70955e-14 0
lhumerus -55.0668 -32.936 122.088
lradius 62.6188 0 0
lwrist 17.057 0 0
lhand 4.63075 12.3582 0
lfingers 7.12502 0 0
lthumb 30.0177 39.9423 0
rclavicle -2.1916e-14 1.70955e-14 0
rhumerus -40.11 -16.4955 -63.894
rradius 61.1616 0 0
rwrist 15.2661 0 0
rhand -16.1047 -25.5871 0
rfingers 7.12502 0 0
rthumb 10.0992 -775.325 0
248
root 6.65971 15.9601 -25.6769 9.59679 41.0703 -3.71778
lfemur -39.1875 26.2549 -14.0696
ltibia 47.8618 0 0
lfoot -18.1199 -0.198065 0
ltoes 34.4172 0 0
rfemur -10.398 3.26587 3.79025
rtibia 39.1979 0 0
rfoot -35.3215 -30.4171 0
rtoes 54.3966 0 0
lowerback 0.327473 -3.05569 1.55286
upperback -1.21217 -4.00865 3.23049
thorax -1.29982 -1.99797 2.50482
lowerneck -9.56541 -5.60031 -0.454451
upperneck 2.27369 -7.45511 0.799566
head 2.43645 -3.68941 -0.039342
lclavicle -2.12869e-14 1.71003e-14 0
lhumerus -54.7653 -33.1505 121.646
lradius 62.5633 0 0
lwrist 17.0311 0 0
lhand 4.93752 12.3877 0
lfingers 7.12502 0 0
lthumb 30.3082 39.8994 0
rclavicle -2.12869e-14 1.71003e-14 0
rhumerus -40.7999 -15.7321 -64.8462
rradius 61.3899 0 0
rwrist 15.2838 0 0
rhand -16.4252 -25.1214 0
rfingers 7.12502 0 0
rthumb 9.78974 -774.865 0
249
root 6.72879 15.948 -25.6442 10.4666 42.0227 -2.31909
lfemur -38.5815 25.7742 -14.2676
ltibia 47.9831 0 0
lfoot -18.004 -0.996754 0
ltoes 34.904 0 0
rfemur -11.1915 3.14764 4.20229
rtibia 39.5651 0 0
rfoot -34.2312 -30.1268 0
rtoes 54.097 0 0
lowerback 0.504039 -3.12281 1.35887
upperback -1.06426 -4.10388 3.05059
thorax -1.24112 -2.04582 2.43755
lowerneck -9.38301 -5.77466 -0.603103
upperneck 2.29654 -7.69089 0.961011
head 2.44323 -3.80625 0.0309471
lclavicle -2.06578e-14 1.71052e-14 0
lhumerus -54.4637 -33.365 121.205
lradius 62.5079 0 0
lwrist 17.0052 0 0
lhand 5.24429 12.4172 0
lfingers 7.12502 0 0
lthumb 30.5986 39.8565 0
rclavicle -2.06578e-14 1.71052e-14 0
rhumerus -41.4899 -14.9687 -65.7985
rradius 61.6183 0 0
rwrist 15.3016 0 0
rhand -16.7457 -24.6558 0
rfingers 7.12502 0 0
rthumb 9.48029 -774.405 0
